<svg width="18" height="16" viewBox="0 0 18 16" fill="none" xmlns="http://www.w3.org/2000/svg">
<path d="M0.939525 0.839996C0.620668 0.839996 0.363525 1.08642 0.363525 1.392C0.363525 1.69757 0.620668 1.94399 0.939525 1.94399H2.77724L4.75895 10.8975C4.83781 11.236 5.06752 11.5153 5.35895 11.512H14.9589C15.2641 11.5153 15.5418 11.2524 15.5418 10.96C15.5418 10.6675 15.2607 10.4047 14.9589 10.408H5.82181L5.57495 9.30398H15.7201C15.9772 9.30069 16.2207 9.1134 16.2789 8.87355L17.6229 3.35356C17.6984 3.03156 17.4069 2.68328 17.0641 2.67999H4.11781L3.80581 1.277C3.75438 1.03057 3.5041 0.839996 3.24352 0.839996H0.939525ZM4.35781 3.78399H16.3407L15.2675 8.19998H5.33838L4.35781 3.78399ZM7.27552 11.88C6.22295 11.88 5.35552 12.7113 5.35552 13.72C5.35552 14.7287 6.22295 15.56 7.27552 15.56C8.32809 15.56 9.19552 14.7287 9.19552 13.72C9.19552 12.7113 8.32809 11.88 7.27552 11.88ZM13.0355 11.88C11.9829 11.88 11.1155 12.7113 11.1155 13.72C11.1155 14.7287 11.9829 15.56 13.0355 15.56C14.0881 15.56 14.9555 14.7287 14.9555 13.72C14.9555 12.7113 14.0881 11.88 13.0355 11.88ZM7.27552 12.984C7.70752 12.984 8.04352 13.306 8.04352 13.72C8.04352 14.134 7.70752 14.456 7.27552 14.456C6.84352 14.456 6.50752 14.134 6.50752 13.72C6.50752 13.306 6.84352 12.984 7.27552 12.984ZM13.0355 12.984C13.4675 12.984 13.8035 13.306 13.8035 13.72C13.8035 14.134 13.4675 14.456 13.0355 14.456C12.6035 14.456 12.2675 14.134 12.2675 13.72C12.2675 13.306 12.6035 12.984 13.0355 12.984Z" fill="white" fill-opacity="0.65"/>
</svg>
