<svg width="15" height="15" viewBox="0 0 15 15" fill="none" xmlns="http://www.w3.org/2000/svg">
<path d="M13.371 0.846246C13.3457 0.785051 13.3056 0.731096 13.2543 0.689225C13.203 0.647354 13.1421 0.618875 13.077 0.606346C13.012 0.593816 12.9449 0.597628 12.8817 0.617438C12.8185 0.637247 12.7612 0.672436 12.715 0.719846L10.555 2.87985C9.93377 2.39664 9.15746 2.15697 8.37196 2.20588C7.58646 2.25479 6.84587 2.58891 6.28939 3.14545L5.80059 3.63345C5.72246 3.71146 5.66048 3.80412 5.61819 3.90611C5.5759 4.0081 5.55413 4.11743 5.55413 4.22785C5.55413 4.33826 5.5759 4.44759 5.61819 4.54958C5.66048 4.65157 5.72246 4.74423 5.80059 4.82225L8.01979 7.03505C8.24059 6.87505 8.47739 6.73505 8.72699 6.61745L6.61499 4.50545C6.54166 4.43183 6.50049 4.33215 6.50049 4.22825C6.50049 4.12434 6.54166 4.02467 6.61499 3.95105L6.85499 3.71105C7.30921 3.25574 7.92566 2.99946 8.5688 2.99856C9.21193 2.99766 9.82909 3.25221 10.2846 3.70625L10.2894 3.71425L10.2942 3.71985C10.6118 4.04017 10.8339 4.44259 10.9356 4.88203C11.0373 5.32147 11.0147 5.78055 10.8702 6.20785C11.1462 6.22465 11.4158 6.26705 11.6758 6.33265C11.8196 5.84175 11.8446 5.32367 11.7486 4.82122C11.6526 4.31876 11.4384 3.84636 11.1238 3.44305L13.2838 1.28305C13.34 1.22709 13.3783 1.15568 13.3938 1.07791C13.4093 1.00013 13.4014 0.919496 13.371 0.846246ZM4.82299 5.79985L7.03899 8.01585C6.8772 8.23794 6.73658 8.47471 6.61899 8.72305L4.51019 6.61425C4.43671 6.54097 4.33717 6.49982 4.23339 6.49982C4.12961 6.49982 4.03007 6.54097 3.95659 6.61425L3.71659 6.85425C3.26206 7.30888 3.00633 7.92518 3.00543 8.56805C3.00453 9.21093 3.25854 9.82794 3.71179 10.2838L3.71659 10.2886L3.72059 10.2934C4.04001 10.6124 4.44216 10.8359 4.88174 10.9387C5.32132 11.0414 5.78086 11.0194 6.20859 10.875C6.22459 11.147 6.26699 11.4142 6.33099 11.671C5.84083 11.814 5.32374 11.8386 4.82223 11.7427C4.32073 11.6469 3.84912 11.4334 3.44619 11.1198L1.28619 13.2798C1.24921 13.3172 1.20524 13.3469 1.15678 13.3672C1.10832 13.3876 1.05633 13.3982 1.00377 13.3985C0.951212 13.3987 0.899117 13.3886 0.850461 13.3688C0.801804 13.3489 0.757538 13.3196 0.72019 13.2826C0.682842 13.2457 0.653144 13.2017 0.63279 13.1532C0.612437 13.1048 0.601827 13.0528 0.601567 13.0002C0.601307 12.9477 0.611402 12.8956 0.631275 12.8469C0.651148 12.7983 0.68041 12.754 0.71739 12.7166L2.87739 10.5566C2.39319 9.93583 2.15289 9.1593 2.20182 8.37351C2.25075 7.58772 2.58552 6.847 3.14299 6.29105L3.38299 6.05105L3.63499 5.79985C3.71299 5.72184 3.8056 5.65995 3.90752 5.61773C4.00944 5.57552 4.11867 5.55379 4.22899 5.55379C4.33931 5.55379 4.44854 5.57552 4.55046 5.61773C4.65238 5.65995 4.74499 5.72184 4.82299 5.79985ZM12.5998 13.5934C12.2067 13.8561 11.7657 14.0387 11.3019 14.1309C10.8382 14.2231 10.3609 14.2231 9.89721 14.1309C9.43351 14.0386 8.99253 13.8559 8.59943 13.5932C8.20634 13.3305 7.86883 12.993 7.60619 12.5998C7.34355 12.2067 7.16091 11.7657 7.0687 11.302C6.97649 10.8383 6.97652 10.361 7.06878 9.89727C7.16105 9.43357 7.34374 8.99258 7.60643 8.59949C7.86912 8.20639 8.20667 7.86889 8.59979 7.60625C9.39374 7.07581 10.3659 6.8825 11.3024 7.06884C12.2389 7.25517 13.063 7.80589 13.5934 8.59985C14.1238 9.3938 14.3171 10.3659 14.1308 11.3024C13.9445 12.2389 13.3937 13.063 12.5998 13.5934ZM10.883 8.71665C10.827 8.66056 10.7557 8.62235 10.678 8.60686C10.6003 8.59136 10.5198 8.59928 10.4466 8.62962C10.3734 8.65995 10.3109 8.71133 10.267 8.77724C10.223 8.84315 10.1996 8.92063 10.1998 8.99985V10.1998H8.99979C8.8937 10.1998 8.79196 10.242 8.71695 10.317C8.64193 10.392 8.59979 10.4938 8.59979 10.5998C8.59979 10.7059 8.64193 10.8077 8.71695 10.8827C8.79196 10.9577 8.8937 10.9998 8.99979 10.9998H10.1998V12.1998C10.1998 12.3059 10.2419 12.4077 10.3169 12.4827C10.392 12.5577 10.4937 12.5998 10.5998 12.5998C10.7059 12.5998 10.8076 12.5577 10.8826 12.4827C10.9576 12.4077 10.9998 12.3059 10.9998 12.1998V10.9998H12.1998C12.3059 10.9998 12.4076 10.9577 12.4826 10.8827C12.5576 10.8077 12.5998 10.7059 12.5998 10.5998C12.5998 10.4938 12.5576 10.392 12.4826 10.317C12.4076 10.242 12.3059 10.1998 12.1998 10.1998H10.9998V8.99985C10.9999 8.94728 10.9896 8.89522 10.9696 8.84662C10.9495 8.79803 10.9201 8.75386 10.883 8.71665Z" fill="white"/>
</svg>
