<svg width="15" height="16" viewBox="0 0 15 16" fill="none" xmlns="http://www.w3.org/2000/svg">
<path d="M12.4 0H1.68004C0.776039 0 0.0400391 0.736 0.0400391 1.648V12.464C0.0400391 13.376 0.776039 14.112 1.68004 14.112H10.752L10.328 12.632L11.352 13.584L12.32 14.48L14.04 16V1.648C14.04 0.736 13.304 0 12.4 0ZM9.31204 10.448C9.31204 10.448 9.02404 10.104 8.78404 9.8C9.83204 9.504 10.232 8.848 10.232 8.848C9.90404 9.064 9.59204 9.216 9.31204 9.32C8.91204 9.488 8.52804 9.6 8.15204 9.664C7.38404 9.808 6.68004 9.768 6.08004 9.656C5.62404 9.568 5.23204 9.44 4.90404 9.312C4.72004 9.24 4.52004 9.152 4.32004 9.04C4.29604 9.024 4.27204 9.016 4.24804 9C4.23204 8.992 4.22404 8.984 4.21604 8.976C4.07204 8.896 3.99204 8.84 3.99204 8.84C3.99204 8.84 4.37604 9.48 5.39204 9.784C5.15204 10.088 4.85604 10.448 4.85604 10.448C3.08804 10.392 2.41604 9.232 2.41604 9.232C2.41604 6.656 3.56804 4.568 3.56804 4.568C4.72004 3.704 5.81604 3.728 5.81604 3.728L5.89604 3.824C4.45604 4.24 3.79204 4.872 3.79204 4.872C3.79204 4.872 3.96804 4.776 4.26404 4.64C5.12004 4.264 5.80004 4.16 6.08004 4.136C6.12804 4.128 6.16804 4.12 6.21604 4.12C6.70404 4.056 7.25604 4.04 7.83204 4.104C8.59204 4.192 9.40804 4.416 10.24 4.872C10.24 4.872 9.60804 4.272 8.24804 3.856L8.36004 3.728C8.36004 3.728 9.45604 3.704 10.608 4.568C10.608 4.568 11.76 6.656 11.76 9.232C11.76 9.232 11.08 10.392 9.31204 10.448V10.448Z" fill="white" fill-opacity="0.6"/>
</svg>
