<svg width="14" height="14" viewBox="0 0 14 14" fill="none" xmlns="http://www.w3.org/2000/svg">
<path d="M12.7602 2.69375L12.4727 2.525C12.4906 2.43445 12.499 2.34229 12.4977 2.25C12.499 2.15771 12.4906 2.06555 12.4727 1.975L12.7602 1.80625C12.8179 1.77441 12.8685 1.73136 12.9093 1.67965C12.95 1.62793 12.98 1.56859 12.9975 1.50512C13.015 1.44164 13.0196 1.37531 13.011 1.31003C13.0025 1.24476 12.981 1.18184 12.9477 1.125C12.88 1.0105 12.7698 0.927295 12.6412 0.893376C12.5125 0.859456 12.3757 0.877553 12.2602 0.94375L11.9727 1.1125C11.8327 0.992399 11.6716 0.899172 11.4977 0.8375V0.5C11.4977 0.367392 11.4451 0.240215 11.3513 0.146447C11.2575 0.0526784 11.1304 0 10.9977 0C10.8651 0 10.738 0.0526784 10.6442 0.146447C10.5504 0.240215 10.4977 0.367392 10.4977 0.5V0.8375C10.3238 0.899172 10.1628 0.992399 10.0227 1.1125L9.73525 0.94375C9.61983 0.877553 9.48298 0.859456 9.35432 0.893376C9.22566 0.927295 9.11553 1.0105 9.04775 1.125C9.01453 1.18184 8.99302 1.24476 8.98448 1.31003C8.97594 1.37531 8.98054 1.44164 8.99801 1.50512C9.01548 1.56859 9.04547 1.62793 9.08621 1.67965C9.12695 1.73136 9.17762 1.77441 9.23525 1.80625L9.52275 1.975C9.50486 2.06555 9.49648 2.15771 9.49775 2.25C9.49648 2.34229 9.50486 2.43445 9.52275 2.525L9.23525 2.69375C9.14079 2.74917 9.06714 2.83406 9.02561 2.93539C8.98408 3.03672 8.97696 3.14888 9.00536 3.25465C9.03375 3.36041 9.09608 3.45393 9.18278 3.52084C9.26947 3.58775 9.37574 3.62434 9.48525 3.625C9.57334 3.62571 9.6599 3.60191 9.73525 3.55625L10.0227 3.3875C10.1628 3.5076 10.3238 3.60083 10.4977 3.6625V4C10.4977 4.13261 10.5504 4.25979 10.6442 4.35355C10.738 4.44732 10.8651 4.5 10.9977 4.5C11.1304 4.5 11.2575 4.44732 11.3513 4.35355C11.4451 4.25979 11.4977 4.13261 11.4977 4V3.6625C11.6716 3.60083 11.8327 3.5076 11.9727 3.3875L12.2602 3.55625C12.3356 3.60191 12.4221 3.62571 12.5102 3.625C12.6198 3.62434 12.726 3.58775 12.8127 3.52084C12.8994 3.45393 12.9617 3.36041 12.9901 3.25465C13.0185 3.14888 13.0114 3.03672 12.9699 2.93539C12.9284 2.83406 12.8547 2.74917 12.7602 2.69375ZM10.4977 2.25C10.4977 2.15111 10.5271 2.05444 10.582 1.97221C10.637 1.88999 10.715 1.8259 10.8064 1.78806C10.8978 1.75022 10.9983 1.74031 11.0953 1.75961C11.1923 1.7789 11.2814 1.82652 11.3513 1.89645C11.4212 1.96637 11.4688 2.05546 11.4881 2.15245C11.5074 2.24945 11.4975 2.34998 11.4597 2.44134C11.4218 2.5327 11.3578 2.61079 11.2755 2.66573C11.1933 2.72068 11.0966 2.75 10.9977 2.75C10.8651 2.75 10.738 2.69732 10.6442 2.60355C10.5504 2.50979 10.4977 2.38261 10.4977 2.25ZM12.3977 5.5375C12.2671 5.55319 12.148 5.61972 12.0661 5.72267C11.9842 5.82562 11.9462 5.9567 11.9602 6.0875C11.9852 6.30745 11.9977 6.52864 11.9977 6.75C11.9996 8.09585 11.5056 9.39522 10.6102 10.4C10.0528 9.5915 9.26737 8.96711 8.354 8.60625C8.84388 8.2204 9.20135 7.69149 9.3767 7.09306C9.55205 6.49463 9.53656 5.85643 9.33238 5.26722C9.1282 4.678 8.74549 4.16705 8.23746 3.80543C7.72943 3.44381 7.12134 3.24949 6.49775 3.24949C5.87416 3.24949 5.26606 3.44381 4.75803 3.80543C4.25001 4.16705 3.86729 4.678 3.66311 5.26722C3.45893 5.85643 3.44344 6.49463 3.61879 7.09306C3.79414 7.69149 4.15161 8.2204 4.6415 8.60625C3.72813 8.96711 2.94274 9.5915 2.38525 10.4C1.682 9.6073 1.22273 8.62832 1.06266 7.5808C0.90259 6.53328 1.04854 5.46182 1.48296 4.49527C1.91737 3.52873 2.62176 2.70826 3.5114 2.13254C4.40105 1.55681 5.43807 1.25035 6.49775 1.25C6.66891 1.24897 6.84 1.25732 7.01025 1.275C7.07591 1.28075 7.14206 1.2735 7.20492 1.25368C7.26778 1.23386 7.32612 1.20186 7.37661 1.15949C7.4271 1.11712 7.46876 1.06523 7.49919 1.00676C7.52963 0.948297 7.54825 0.884411 7.554 0.81875C7.55974 0.753089 7.5525 0.686939 7.53268 0.624078C7.51286 0.561217 7.48085 0.502874 7.43849 0.452383C7.39612 0.401891 7.34422 0.360238 7.28576 0.329803C7.22729 0.299367 7.16341 0.280745 7.09775 0.275C6.904 0.25625 6.69775 0.25 6.49775 0.25C5.18801 0.250455 3.90897 0.646563 2.82822 1.38642C1.74747 2.12627 0.915438 3.17536 0.441154 4.3962C-0.0331303 5.61704 -0.127541 6.95269 0.170295 8.22811C0.46813 9.50353 1.14432 10.6592 2.11025 11.5437L2.1915 11.6187C3.37978 12.6697 4.91138 13.2498 6.49775 13.2498C8.08411 13.2498 9.61571 12.6697 10.804 11.6187L10.8852 11.5437C11.5516 10.9357 12.0836 10.1953 12.4474 9.36982C12.8112 8.54436 12.9986 7.65206 12.9977 6.75C12.9989 6.49102 12.9843 6.2322 12.954 5.975C12.9462 5.90973 12.9257 5.84662 12.8936 5.7893C12.8614 5.73197 12.8182 5.68155 12.7666 5.64091C12.7149 5.60028 12.6558 5.57023 12.5925 5.55248C12.5292 5.53474 12.463 5.52965 12.3977 5.5375ZM4.49775 6.25C4.49775 5.85444 4.61504 5.46776 4.83481 5.13886C5.05457 4.80996 5.36693 4.55362 5.73238 4.40224C6.09783 4.25087 6.49996 4.21126 6.88793 4.28843C7.27589 4.3656 7.63225 4.55608 7.91196 4.83579C8.19166 5.11549 8.38215 5.47186 8.45932 5.85982C8.53649 6.24778 8.49688 6.64991 8.3455 7.01537C8.19413 7.38082 7.93778 7.69318 7.60889 7.91294C7.27999 8.1327 6.89331 8.25 6.49775 8.25C5.96782 8.24835 5.46007 8.03711 5.08535 7.66239C4.71064 7.28768 4.49939 6.77993 4.49775 6.25ZM3.129 11.0938C3.49082 10.5286 3.98902 10.0635 4.57771 9.74143C5.16641 9.41932 5.82669 9.25049 6.49775 9.25049C7.16881 9.25049 7.82908 9.41932 8.41778 9.74143C9.00647 10.0635 9.50467 10.5286 9.8665 11.0938C8.9033 11.8428 7.71793 12.2495 6.49775 12.2495C5.27757 12.2495 4.09219 11.8428 3.129 11.0938Z" fill="white" fill-opacity="0.5"/>
</svg>
