<svg width="23" height="23" viewBox="0 0 23 23" fill="none" xmlns="http://www.w3.org/2000/svg">
<circle cx="11.5" cy="11.5" r="11.5" fill="white"/>
<path d="M5.87256 5.22705C5.36233 5.22705 4.96174 5.28304 4.65392 5.47684C4.34609 5.67064 4.18164 6.02379 4.18164 6.44154C4.18164 9.78355 4.18164 13.1988 4.18164 16.067C4.18164 16.5752 4.23646 17.0016 4.4979 17.3203C4.75934 17.6347 5.18945 17.7725 5.78823 17.7725H17.1524C17.671 17.7725 18.0969 17.639 18.3921 17.3418C18.6873 17.0447 18.818 16.614 18.818 16.0972V9.29689C18.818 8.7887 18.6873 8.36234 18.3963 8.06948C18.312 7.98335 18.215 7.91875 18.1096 7.85845C18.1096 7.55268 18.0759 7.30719 18.0084 7.10478C17.8735 6.76885 17.671 6.62243 17.3801 6.50184C17.3337 6.07978 17.203 5.7697 16.9668 5.55867C16.659 5.28304 16.2416 5.22705 15.7566 5.22705H5.87256ZM4.65392 6.91528H16.4693C16.9373 6.91098 17.3506 6.90667 17.5698 7.26413C17.6036 7.35887 17.6162 7.5053 17.6289 7.67757C17.4939 7.65173 17.3464 7.63881 17.1946 7.63881H4.65392V6.91528ZM4.65392 8.12116H17.1903C17.612 8.12116 17.8903 8.22452 18.0674 8.40971C18.2445 8.5949 18.3457 8.87484 18.3457 9.29689V16.0972C18.3457 16.5322 18.2403 16.8121 18.059 16.993C17.8777 17.1739 17.5909 17.2858 17.1524 17.2858H5.79244C5.25691 17.2858 5.00391 17.1782 4.86054 17.0059C4.72139 16.8379 4.65392 16.5322 4.65392 16.0627V8.12116ZM16.2247 13.9094L15.8831 14.7664L15.044 15.1153L15.8831 15.4641L16.2247 16.3211L16.562 15.4598L17.4054 15.1153L16.5663 14.7664L16.2247 13.9094Z" fill="black"/>
</svg>
